# xmcd
#
# Track frame offsets:
#	150
#	13520
#	24700
#	37340
#	52680
#	67835
#	86740
#	107198
#	120195
#	133633
#	148888
#	164413
#	178500
#	195248
#	213955
#	228293
#	243015
#	260865
#	274970
#	290930
#	305853
#
# Disc length: 4267
#
# Revision: 2
# Processed by: cddbd v1.5.1PL0 Copyright (c) Steve Scherf et al.
# Submitted via: CDex 1.40Beta8
# Normalized: r0:DSETVAR1,TDELIM( - ),TSWAP
#
DISCID=3510a915
DTITLE=Various Artist - Top Hits USA RC28
DYEAR=1995
DGENRE=Country
TTITLE0=Pam Tillis - Mi Vidia Loca
TTITLE1=Tracy Byrd - The First Step
TTITLE2=Sawyer Brown - This Time
TTITLE3=John Berry (Edit) - You And Only You
TTITLE4=Mavericks - There Goes My Heart
TTITLE5=Alan Jackson - Gone Country
TTITLE6=Toby Keith - Upstairs Downtown
TTITLE7=Collin Raye - My Kind Of Girl
TTITLE8=Mary Chapin Carpenter - Tender When I Want To Be
TTITLE9=Brooks and Dunn - I'll Never Forgive My Heart
TTITLE10=Brooks and Dunn - You Can't Make A Heart Love Somebody
TTITLE11=Tracy Lawrence - As Any Fool Can See
TTITLE12=Doug Stone - Little Houses
TTITLE13=Travis Tritt - Between And Old Memory And Me
TTITLE14=Wade Hayes (Radio Edit) - Old Enough To Know Better
TTITLE15=John Anderson (Radio Edit) - Bend It Until It Breaks
TTITLE16=Clint Black (Radio Edit) - Wherever You Go
TTITLE17=Patty Loveless - Here I Am
TTITLE18=Neal McCoy - For A Change
TTITLE19=Diamond Rio - Night Is Fallin' In My Heart
TTITLE20=Martina McBride - Heart Trouble
EXTD=YEAR: 1995 ID3G: 2
EXTT0=
EXTT1=
EXTT2=
EXTT3=
EXTT4=
EXTT5=
EXTT6=
EXTT7=
EXTT8=
EXTT9=
EXTT10=
EXTT11=
EXTT12=
EXTT13=
EXTT14=
EXTT15=
EXTT16=
EXTT17=
EXTT18=
EXTT19=
EXTT20=
PLAYORDER=
